<svg width="68" height="68" viewBox="0 0 68 68" fill="none" xmlns="http://www.w3.org/2000/svg">
<g filter="url(#filter0_d_105_326)">
<path d="M4 10C4 4.47715 8.47715 0 14 0H54C59.5228 0 64 4.47715 64 10V50C64 55.5228 59.5228 60 54 60H14C8.47715 60 4 55.5228 4 50V10Z" fill="white"/>
</g>
<path d="M34.0045 19.7423C28.3291 19.7423 23.7513 24.3201 23.7513 29.9955C23.7513 35.6709 28.3291 40.2487 34.0045 40.2487C39.6799 40.2487 44.2577 35.6709 44.2577 29.9955C44.2577 24.3201 39.6799 19.7423 34.0045 19.7423ZM34.0045 36.6615C30.3369 36.6615 27.3385 33.6721 27.3385 29.9955C27.3385 26.319 30.3279 23.3296 34.0045 23.3296C37.681 23.3296 40.6704 26.319 40.6704 29.9955C40.6704 33.6721 37.6721 36.6615 34.0045 36.6615ZM47.0686 19.3229C47.0686 20.6525 45.9978 21.7144 44.6771 21.7144C43.3475 21.7144 42.2856 20.6436 42.2856 19.3229C42.2856 18.0022 43.3564 16.9314 44.6771 16.9314C45.9978 16.9314 47.0686 18.0022 47.0686 19.3229ZM53.8595 21.7501C53.7078 18.5466 52.976 15.7089 50.6291 13.3709C48.2911 11.0329 45.4534 10.3012 42.2499 10.1405C38.9481 9.95315 29.0519 9.95315 25.7501 10.1405C22.5555 10.2922 19.7178 11.024 17.3709 13.362C15.024 15.6999 14.3012 18.5376 14.1405 21.7412C13.9532 25.0429 13.9532 34.9392 14.1405 38.2409C14.2922 41.4445 15.024 44.2822 17.3709 46.6202C19.7178 48.9582 22.5466 49.6899 25.7501 49.8505C29.0519 50.0379 38.9481 50.0379 42.2499 49.8505C45.4534 49.6988 48.2911 48.9671 50.6291 46.6202C52.9671 44.2822 53.6988 41.4445 53.8595 38.2409C54.0468 34.9392 54.0468 25.0519 53.8595 21.7501ZM49.594 41.7836C48.8979 43.5326 47.5505 44.8801 45.7925 45.5851C43.1601 46.6291 36.9136 46.3882 34.0045 46.3882C31.0954 46.3882 24.8399 46.6202 22.2164 45.5851C20.4674 44.889 19.1199 43.5416 18.4149 41.7836C17.3709 39.1511 17.6118 32.9046 17.6118 29.9955C17.6118 27.0864 17.3798 20.831 18.4149 18.2075C19.111 16.4584 20.4584 15.111 22.2164 14.406C24.8489 13.362 31.0954 13.6029 34.0045 13.6029C36.9136 13.6029 43.169 13.3709 45.7925 14.406C47.5416 15.1021 48.889 16.4495 49.594 18.2075C50.638 20.8399 50.3971 27.0864 50.3971 29.9955C50.3971 32.9046 50.638 39.1601 49.594 41.7836Z" fill="#FD6925"/>
<defs>
<filter id="filter0_d_105_326" x="0" y="0" width="68" height="68" filterUnits="userSpaceOnUse" color-interpolation-filters="sRGB">
<feFlood flood-opacity="0" result="BackgroundImageFix"/>
<feColorMatrix in="SourceAlpha" type="matrix" values="0 0 0 0 0 0 0 0 0 0 0 0 0 0 0 0 0 0 127 0" result="hardAlpha"/>
<feOffset dy="4"/>
<feGaussianBlur stdDeviation="2"/>
<feComposite in2="hardAlpha" operator="out"/>
<feColorMatrix type="matrix" values="0 0 0 0 0 0 0 0 0 0 0 0 0 0 0 0 0 0 0.25 0"/>
<feBlend mode="normal" in2="BackgroundImageFix" result="effect1_dropShadow_105_326"/>
<feBlend mode="normal" in="SourceGraphic" in2="effect1_dropShadow_105_326" result="shape"/>
</filter>
</defs>
</svg>
