<svg width="68" height="68" viewBox="0 0 68 68" fill="none" xmlns="http://www.w3.org/2000/svg">
<g filter="url(#filter0_d_105_331)">
<path d="M4 10C4 4.47715 8.47715 0 14 0H54C59.5228 0 64 4.47715 64 10V50C64 55.5228 59.5228 60 54 60H14C8.47715 60 4 55.5228 4 50V10Z" fill="white"/>
</g>
<path d="M23.4084 23.4831V47.375H15.4549V23.4831H23.4084ZM23.9261 16.1101C23.9418 17.2866 23.5339 18.2593 22.7025 19.0436C21.8711 19.828 20.7886 20.2202 19.4395 20.2202H19.3925C18.0747 20.2202 17.008 19.828 16.2079 19.0436C15.4079 18.2593 15 17.2866 15 16.1101C15 14.9178 15.4079 13.9452 16.2393 13.1609C17.0707 12.3765 18.1532 12 19.4866 12C20.82 12 21.8868 12.3922 22.6868 13.1609C23.4869 13.9452 23.8947 14.9178 23.9261 16.1101ZM52.0222 33.6799V47.375H44.1001V34.6055C44.1001 32.9113 43.7706 31.5935 43.1274 30.6366C42.4843 29.6797 41.4646 29.1933 40.0841 29.1933C39.0644 29.1933 38.233 29.4757 37.5427 30.0248C36.8525 30.5738 36.3505 31.2641 36.0054 32.0798C35.8328 32.5661 35.7387 33.2093 35.7387 34.0407V47.375H27.8009C27.8323 40.9589 27.8479 35.7664 27.8479 31.7818C27.8479 27.7972 27.848 25.4127 27.8323 24.644L27.8166 23.4831H35.7387V26.9501H35.6916C36.0054 26.4324 36.3348 25.9931 36.6799 25.6009C37.0094 25.2088 37.4643 24.8009 38.0447 24.346C38.6252 23.891 39.3154 23.5459 40.1468 23.2949C40.9783 23.0439 41.9038 22.9184 42.9078 22.9184C45.6531 22.9184 47.865 23.8283 49.5436 25.648C51.1907 27.4834 52.0222 30.166 52.0222 33.6799Z" fill="#FD6925"/>
<defs>
<filter id="filter0_d_105_331" x="0" y="0" width="68" height="68" filterUnits="userSpaceOnUse" color-interpolation-filters="sRGB">
<feFlood flood-opacity="0" result="BackgroundImageFix"/>
<feColorMatrix in="SourceAlpha" type="matrix" values="0 0 0 0 0 0 0 0 0 0 0 0 0 0 0 0 0 0 127 0" result="hardAlpha"/>
<feOffset dy="4"/>
<feGaussianBlur stdDeviation="2"/>
<feComposite in2="hardAlpha" operator="out"/>
<feColorMatrix type="matrix" values="0 0 0 0 0 0 0 0 0 0 0 0 0 0 0 0 0 0 0.25 0"/>
<feBlend mode="normal" in2="BackgroundImageFix" result="effect1_dropShadow_105_331"/>
<feBlend mode="normal" in="SourceGraphic" in2="effect1_dropShadow_105_331" result="shape"/>
</filter>
</defs>
</svg>
