<svg width="27" height="23" viewBox="0 0 27 23" fill="none" xmlns="http://www.w3.org/2000/svg">
<path d="M0 1.64286C0 0.73554 0.73554 0 1.64286 0H24.6429C25.5502 0 26.2857 0.73554 26.2857 1.64286C26.2857 2.55017 25.5502 3.28571 24.6429 3.28571H1.64286C0.73554 3.28571 0 2.55017 0 1.64286Z" fill="#FD6925"/>
<path d="M0 21.3572C0 20.4498 0.73554 19.7143 1.64286 19.7143H24.6429C25.5502 19.7143 26.2857 20.4498 26.2857 21.3572C26.2857 22.2645 25.5502 23 24.6429 23H1.64286C0.73554 23 0 22.2645 0 21.3572Z" fill="#FD6925"/>
<path d="M11.5 9.85715C10.5927 9.85715 9.85718 10.5927 9.85718 11.5C9.85718 12.4074 10.5927 13.1429 11.5 13.1429H24.6429C25.5502 13.1429 26.2857 12.4074 26.2857 11.5C26.2857 10.5927 25.5502 9.85715 24.6429 9.85715H11.5Z" fill="#FD6925"/>
</svg>
