<svg width="68" height="68" viewBox="0 0 68 68" fill="none" xmlns="http://www.w3.org/2000/svg">
<g filter="url(#filter0_d_105_346)">
<path d="M4 10C4 4.47715 8.47715 0 14 0H54C59.5228 0 64 4.47715 64 10V50C64 55.5228 59.5228 60 54 60H14C8.47715 60 4 55.5228 4 50V10Z" fill="white"/>
</g>
<path d="M45.5017 12H51.635L38.235 27.3167L54 48.155H41.6567L31.99 35.515L20.9267 48.155H14.79L29.1233 31.7717L14 12.0017H26.6567L35.395 23.555L45.5017 12ZM43.35 44.485H46.7483L24.81 15.4783H21.1633L43.35 44.485Z" fill="#FD6925"/>
<defs>
<filter id="filter0_d_105_346" x="0" y="0" width="68" height="68" filterUnits="userSpaceOnUse" color-interpolation-filters="sRGB">
<feFlood flood-opacity="0" result="BackgroundImageFix"/>
<feColorMatrix in="SourceAlpha" type="matrix" values="0 0 0 0 0 0 0 0 0 0 0 0 0 0 0 0 0 0 127 0" result="hardAlpha"/>
<feOffset dy="4"/>
<feGaussianBlur stdDeviation="2"/>
<feComposite in2="hardAlpha" operator="out"/>
<feColorMatrix type="matrix" values="0 0 0 0 0 0 0 0 0 0 0 0 0 0 0 0 0 0 0.25 0"/>
<feBlend mode="normal" in2="BackgroundImageFix" result="effect1_dropShadow_105_346"/>
<feBlend mode="normal" in="SourceGraphic" in2="effect1_dropShadow_105_346" result="shape"/>
</filter>
</defs>
</svg>
